<svg version="1" xmlns="http://www.w3.org/2000/svg" width="214.667" height="214.667" viewBox="0 0 161.000000 161.000000"><path d="M83.3 1.9c-9.3 2.3-18.7 7-24.8 12.3C49.2 22.4 42 37.1 42 47.9c0 10.6 5.8 22.6 13.3 27.5 6.7 4.3 17.8 4.6 22.9.7 1.3-1 3.6-2.1 5.2-2.5l3-.7-2.6 3.3c-6.5 8.6-19.2 12-29.9 8.2-5.6-2-13.6-8.5-16.8-13.7-7.9-12.9-9.7-37.8-4-54.5 1-3 1.8-5.7 1.6-5.8-.5-.6-7.4 8.8-10.2 14.1-1.5 2.7-3.1 5.5-3.6 6.1-.5.6-2.1 4.2-3.5 8-2.1 5.4-2.7 8.8-2.8 15.7-.1 8-.2 8.5-1.3 5.8-2-4.8-3.5-16.7-3.1-24.2.2-3.8.2-6.9 0-6.9S8.6 31.8 7 35.3C0 50.8.5 67.9 8.6 84.8c7 14.7 23 27.4 38.2 30.5 7.7 1.6 18.2.7 24.5-2.1 10.5-4.7 16.1-16.2 15-31.1-.3-3.3 0-6.8.5-7.7.7-1.3 0-2.6-3.3-5.8-6.1-6.2-6.8-13-2.4-22.3C84.2 39.9 90 34.5 96.6 32c7.4-2.8 21-3.8 28.5-2 6.6 1.5 18.7 7.1 22.8 10.6 5.9 4.9 3.1.9-4.3-6.3-14.4-14-29.1-21.5-43.2-21.9-12.8-.5-22.4 3.4-31.3 12.5-4.1 4.1-4.9 4.7-3.2 2.1 6-8.8 16.7-15.9 30.6-20.3 6.1-2 9.3-2.5 17-2.7l6-.2-4.5-1.5C108 0 91.9-.2 83.3 1.9zm.7 84.3c-1.2 4-4.4 7.4-8.2 8.7l-3 1.1 3.5-3.9c2-2.2 4.3-5.1 5.2-6.5 2.4-3.5 3.6-3.3 2.5.6z"/><path d="M102.5 38c-13.1 5.2-19.7 16.8-14.6 25.6 2.6 4.4 2.7 5.8 0 5.1-1.5-.4-1 .5 2.1 3.9 2.2 2.4 4.5 5.6 5.1 7.2 1 2.5 1.3 3.9 2.4 9.9.5 3-1.7 12-4.2 16.8-6 11.5-20.6 19.1-38.3 20-9.6.5-17.6-1-26.5-5-6.4-2.8-6.3-2 1 4.8 12.7 12 35.2 19.1 49.7 15.7 16.3-3.8 29.3-17.2 32.9-33.9.6-3 .9-7.4.5-9.8-.7-5.2-4.7-14.1-8.4-18.5l-2.7-3.2 2.7 1.9c11.6 8.6 14.1 30 5.2 45.9-7.9 14.1-33.3 25.3-58.6 25.8-9.1.2-9 .8.9 5.5 20.1 9.4 42.5 4.8 59.6-12.2 7.9-7.8 12.7-15.7 15.1-25.1 4.2-16.3 1.8-29-7.1-37.8-5.7-5.6-11.8-8.4-17.8-8.2-2.8.2-5.8-.3-6.7-.9-1.7-1.1-1.6-1.3.7-3.5 4.9-4.6 14.9-2.2 23.6 5.7 8.3 7.5 12 17.8 12.1 33.1 0 18.5-3.6 29.7-14.1 43.6-2.8 3.6-4.8 6.6-4.5 6.6.3 0 3.1-1.7 6.2-3.9 12.8-8.6 22.6-21.7 28.3-37.6l1.8-5-.4 5c-1.6 19.9-1.6 21.1 0 19.1 2.8-3.7 7.4-16.2 9-25.1 3.2-16.8.3-35.2-7.7-49.3-7.2-12.7-22.3-22.9-35.3-23.8-5.5-.3-8.1 0-12 1.6z"/></svg>