<svg xmlns="http://www.w3.org/2000/svg" width="476.7" height="121.3" viewBox="0 0 476.7 121.3">
  <defs>
    <clipPath id="a">
      <path d="M0 910V0h3575.6v910z"/>
    </clipPath>
  </defs>
  <g clip-path="url(#a)" transform="matrix(.13333 0 0 -.13333 0 121.333)">
    <path fill="#231f20" d="M1825 339c7 12.7 23 43 32 81.6 8.3 36.4 10 78.5 10 137.4v48.6h170.8V339h36.4V236h-39v67h-204v-67H1792v103zm82 231.6v-10c0-76.7-5.7-117.4-12.6-146.5-6-26-14.8-49-28.7-75h130.5v232H1907m378-240c-16-18-39-32-78.8-32-24.3 0-49.8 4-72.4 27-17.8 19-29 47-29 78 0 28 9.5 60 29 81 16 18 37.3 27 65.5 27 22 0 43-5 59.8-21 26-24 32-64 32-91.2h-146c1-19 8-40 20-52.3 13-12.5 27-15 40-15 12 0 35 1.6 57 22zm-36.3 98c-1.3 13-7.4 29-16 38-10.5 11-22.6 13-34 13-12.4 0-23.3-2-33.2-12-9-8-17-23-19-38h102.2m131.8-126h-36v202h36v-78h96.6v78h36V303h-36v94h-96v-94m200 202.6h36v-69h37c29 0 50-5.6 65-19.5 16-15 19-34 19-47 0-25-10-39-18-47-17-16-44-19-70-19h-67zm70-171.2c9 0 25 .8 35 8.6 6 4.4 13 12.6 13 27.3 0 14-6 22-11 26.5-10 7.8-27 8.6-37 8.6h-32v-71h33m171-31.4h-36v202.6h130v-32h-94V303m272 182.2v20.4h36V303h-36v138l-97-117v-21h-36v202.6h36V368.2l96.4 117"/>
    <path fill="#ee2423" d="M170.8 452.5h-25.4c-40 0-78.8 29-78.8 102 0 76 36.4 107 73.3 107h30zm40 248h-69c-68 0-125.5-51.8-125.5-152 0-60.2 28-104.5 77.6-126.4L1 255c-3-5.5 0-9.7 4.8-9.7h43c3.7 0 6 1 7.3 4L141 414h30V249c0-2 1.7-4.3 4-4.3h37.6c3.6 0 5 1.8 5 4.8v444.8c0 4.3-2.6 6-6.8 6"/>
    <path fill="#231f20" d="M438.5 549.3H401c-3 0-5-2.4-5-4.2V429h-69.6v116c0 3-1.2 4.3-4.2 4.3h-37.6c-3 0-4.8-1.8-4.8-4.2V250c0-3 1.2-5 4.2-5h38.2c2.4 0 4.2 2 4.2 5v141H396V250c0-3 2-5 5-5h37.5c3 0 4.2 2.5 4.2 5v295c0 2.5-1.8 4.3-4.2 4.3m857.5-285l-5 20.7c-.5 1.8-1 2.4-3 2.4-3 0-19.3-6.6-43-6.6-46 0-68.4 44.3-68.4 114.8 0 62 18.8 123.3 50.3 123.3 8 0 18-3 35-18 1-2 3-3 5-3 1 0 3 1 5 4l16 27c1 1 2 3 2 5s-3 4-6 6c-25 13-42 15-57 15-57 0-101-68-101-175 0-92 42-145 103-145 25 0 52 12 63 20 2 2 3 4 2 6.4m-263 148l72.3 133c1 2 .4 4.2-2 4.2h-35c-10.5 0-14-4-17.7-11.8L995 423c-3-6.4-6-10.7-9-12.5v134c0 2.7-1.4 4.5-3.8 4.5H943c-1.7 0-3.5-1.8-3.5-4.2V249c0-1.7 1-4 3.5-4h40c2.4 0 3.6 1.7 3.6 4v152.7c2-1.3 3-3 4.3-5.5l69-142.2c3-7.3 9-9 17-9h38c2 0 3 2.3 2 4l-85 163M620 283.2h-88c31 52.8 43 112.4 47.3 185.3 1.2 15.8 1.8 32.2 1.8 42.5h39zm65.3 0H678c-9 0-11.5 3.6-11.5 11v251c0 3-1.2 4-3.6 4H542c-3 0-5-1.7-5-4v-22c0-73.5-4-168.3-43-240h-13c-3.8 0-5-2-5-5v-88.6c0-3 2.4-4.2 4.3-4.2h29c6.7 0 9 4.8 9 9V245H648v-55.4c0-2.4 2-4.2 4.4-4.2h31c3.5 0 7 3 7 9v84c0 3-1.7 4.8-4.7 4.8m116.8 141.5c-14 0-35.7-2.4-35.7-2.4s0 9 1.2 19c5.4 51.5 18 77.6 39.4 77.6 19.3 0 31.4-27 34.5-74v-21zm6.7 132c-65.4 0-94.5-82.7-94.5-172.6 0-91 41.2-146 101.7-146 29.7 0 55.8 12 69 20 2.5 2 3 3 2.5 6l-5 21c-1 3-2 4-5 4s-20-6-45-6c-47 0-69 41-69 94v14s23-3 37-3h89v25c0 94.7-34 145-82 145"/>
    <path fill="#fccb06" d="M1513.6 910V0H3313l262.6 455L3313 910zm85.5-77h1661l219-378-219-378.4H1599V833"/>
  </g>
</svg>
