<svg xmlns="http://www.w3.org/2000/svg" width="121" height="41" viewBox="0 0 121 41"><title>zalooka</title><path d="M49 24.41l6.19-9.13v-.05h-5.68V14h7.53v.89L50.9 24v.05h6.24v1.22H49zm15.07.88l-.12-1.02h-.05c-.58.78-1.49 1.22-2.45 1.2-.64.05-1.26-.17-1.73-.62a2.32 2.32 0 0 1-.72-1.7c0-1.96 1.72-3.03 4.82-3.01v-.16c0-.67-.18-1.87-1.82-1.87-.75 0-1.47.21-2.11.6l-.33-.97c.8-.49 1.72-.75 2.65-.74 2.45 0 3.05 1.7 3.05 3.31v3.03c-.01.65.03 1.3.13 1.94zm-.22-4.13c-1.59-.04-3.39.25-3.39 1.82-.03.38.1.75.36 1.02.27.27.64.41 1.01.38.87.03 1.65-.52 1.94-1.35.05-.15.08-.31.08-.47zM67 13h1.46v11.88H67zm7.84 12.46c-2.17 0-3.84-1.6-3.84-4.16 0-2.71 1.76-4.3 3.97-4.3 2.32-.01 3.86 1.69 3.86 4.17 0 2.97-2.05 4.29-3.99 4.29zm.07-1.1c1.42 0 2.43-1.32 2.43-3.14 0-1.37-.68-3.11-2.4-3.11-1.72 0-2.47 1.6-2.47 3.14 0 1.78 1.01 3.11 2.44 3.11zm8.93 1.1c-2.17 0-3.84-1.6-3.84-4.16 0-2.71 1.76-4.3 3.97-4.3 2.3-.01 3.86 1.69 3.86 4.17 0 2.97-2.05 4.29-3.99 4.29zm.07-1.1c1.42 0 2.43-1.32 2.43-3.14 0-1.37-.68-3.11-2.4-3.11-1.72 0-2.47 1.6-2.47 3.14 0 1.78 1.01 3.11 2.44 3.11zm6.52-3.87h.04c.19-.28.48-.63.71-.92l2.35-2.79h1.75l-3.09 3.33 3.52 4.77h-1.77L91.18 21l-.75.85v3.04H89V13h1.43zm11.64 4.8l-.12-1.02h-.05c-.58.78-1.49 1.22-2.45 1.2-.64.05-1.26-.17-1.73-.62a2.32 2.32 0 0 1-.72-1.7c0-1.96 1.72-3.03 4.82-3.01v-.16c0-.67-.18-1.87-1.82-1.87-.75 0-1.47.21-2.11.6l-.33-.97c.8-.49 1.72-.75 2.65-.74 2.45 0 3.05 1.7 3.05 3.31v3.03c-.01.65.03 1.3.13 1.94zm-.22-4.13c-1.59-.04-3.39.25-3.39 1.82-.03.38.1.75.36 1.02.27.27.64.41 1.01.38.87.03 1.65-.52 1.94-1.35.05-.15.08-.31.08-.47zm3.15 2.88c-.01-.28.09-.54.28-.74.18-.2.44-.3.71-.3.43-.02.83.22 1 .62.18.39.11.85-.19 1.16-.29.32-.75.42-1.14.26-.4-.16-.66-.55-.66-.98zm4.07-4.32c0-.95 0-1.78-.07-2.53h1.26l.05 1.59h.09a2.422 2.422 0 0 1 2.21-1.78c.14 0 .28.02.42.05v1.4c-.16-.04-.33-.06-.5-.05-1.02 0-1.75.78-1.95 1.89-.04.22-.06.45-.07.68v4.32h-1.44zm11.68 3.17c0 .85 0 1.57.07 2.21h-1.29l-.09-1.33h-.03c-.55.95-1.56 1.53-2.65 1.51-1.26 0-2.76-.7-2.76-3.54V17h1.44v4.49c0 1.54.47 2.57 1.79 2.57.85-.01 1.61-.54 1.92-1.33.09-.24.14-.5.13-.76V17h1.46z" fill="#363c44"/><path d="M3.19 7c-.88 1.38-1.52 2.92-1.88 4.53-.59 2.8-.34 5.71.72 8.36 1.11 2.91 3.1 5.39 5.7 7.07 1.19.76 3.84 2.41 7.36 2.1 1.28-.11 3.58-.31 5.31-2.22 1.73-1.91 1.73-4.57 1.72-5.45 0-.68-.09-1.78-.21-1.79-.13 0-.23.7-.28 1.03-.03.27-.06.54-.06.82-.05.85-.93 1.57-1.3 1.86-1.26 1.02-6.57 2.36-11.11-.61-3.11-2.04-4.41-5.13-4.93-6.38-.59-1.49-.97-3.06-1.13-4.65-.17-1.56-.14-3.12.09-4.67z" fill="#f8b835"/><path d="M6.94 5.53c-1.45 2.44-3.17 5.34-2.92 9.17.16 2.04.82 4.01 1.92 5.73.68 1.06 2.14 3.36 5.08 4.45.67.24 3.74 1.38 6.55-.11 1.48-.79 2.39-2.06 3.2-3.19.53-.71.96-1.49 1.25-2.33.16-.48.27-.97.34-1.46-.22.42-1.68 3.01-4.72 3.66-3.04.64-5.48-1.23-6.06-1.71-2.52-2.03-3.08-4.99-3.45-7.05C7.53 9.07 8 5.35 9.5 2c-.96 1.09-1.81 2.28-2.56 3.53z" fill="#f08295"/><path d="M22.62 18.14a4.773 4.773 0 0 1-2.23-2.25c-1.2-2.72 1.11-5.59 1.39-5.92 1.95-2.35 4.91-2.6 6.31-2.72 5.34-.44 9.4 2.77 10.62 3.81a24.227 24.227 0 0 0-6.32-5.75c-1.06-.7-2.2-1.26-3.41-1.65-1.14-.36-4.02-1.26-7.33-.05-.59.22-4 1.54-5.73 5.13a7.594 7.594 0 0 0-.89 4.34c.08.64.37 3.03 2.49 4.46 2.28 1.54 4.81.71 5.1.6z" fill="#98d9f1"/><path d="M30.78 1.02C27.68-.14 24.3-.31 21.09.51c-1.45.39-4.91 1.31-7.46 4.59-.64.82-3.37 4.35-2.44 8.68.13.58.94 4.39 4.08 5.58.17.06 3.03 1.1 5.06-.51.41-.33.75-.74 1.01-1.19-.82.36-1.74.43-2.6.2-2.17-.66-2.85-3.33-3.07-4.22-.4-1.67-.29-3.42.31-5.03 1.4-3.79 4.97-5.45 6.6-6.21 2.57-1.18 5.39-1.65 8.2-1.38z" fill="#3496cf"/><path d="M22.86 16.72c-.56-.75-.86-1.67-.86-2.62.08-2.5 2.78-4.25 4.63-4.81 3.79-1.17 7.33 1.5 8.16 2.13 4.69 3.55 5.23 9.51 5.38 11.17.32 4.24-.77 8.46-3.09 12 .14-.92.31-2.2.42-3.75.18-2.36.34-4.32.06-6.5-.23-1.77-.56-4.43-2.41-7-.72-1.02-2.99-4.17-6.54-4.31-.42 0-3.18-.12-4.82 1.88-.43.53-.75 1.15-.93 1.81z" fill="#79a446"/><path d="M28.06 39.55c1.85-1.73 3.29-3.87 4.2-6.24A16.8 16.8 0 0 0 33.37 27c-.04-2.13-.1-5.34-2.35-7.87-1.57-1.78-4.4-3.4-6.11-2.55-.95.47-1.29 1.57-1.64 1.44-.35-.13-.42-1.68.17-2.79.98-1.78 3.55-2.27 5.13-2.23 3.95.12 7.51 3.83 8.84 7.63 2.04 5.77-1.29 11.06-2.19 12.51a17.712 17.712 0 0 1-7.16 6.41z" fill="#c8e093"/><path d="M11 37.53c2.68 1.97 5.99 2.88 9.29 2.55 2.79-.37 5.39-1.61 7.45-3.55 1.02-.9 3.7-3.35 4.54-7.49.28-1.36 1.08-5.27-1.26-8.2-1.26-1.57-3.82-3.38-5.89-2.69-.22.07-.42.17-.61.29 1.11.42 2.1 1.1 2.89 2 2.4 2.74 2.18 6.96.96 9.74-2.17 4.87-7.95 6.19-10.89 6.87-2.13.48-4.31.64-6.48.48z" fill="#f28635"/><path d="M6 29.56c1.95 1.22 4.15 1.95 6.44 2.13 1.94.15 3.89-.11 5.73-.76 1.54-.55 3.31-1.17 4.74-2.9.31-.37 2.84-3.54 1.68-7.29A7.434 7.434 0 0 0 21.86 17c.71.14 1.39.38 2.03.71.91.47 1.72 1.12 2.39 1.91.1.11 1.77 2.02 2.28 4.26.89 3.87-1.77 8.63-5.66 10.71-4.02 2.12-8.13.75-9.69.23A15.31 15.31 0 0 1 6 29.56z" fill="#ea4531"/></svg>