<svg width="27" height="28" viewBox="0 0 27 28" xmlns="http://www.w3.org/2000/svg"><title>Group 3</title><g fill="none" fill-rule="evenodd"><rect fill="#F2F2F2" width="27" height="27.317" rx="13.5"/><path d="M13.507 7.103c.391 0 .784.076 1.18.227.395.152.747.342 1.054.572.308.23.56.48.755.754.195.274.293.537.293.791v2.344c0 .45-.105 1.033-.315 1.75-.21.718-.57 1.272-1.077 1.663a.93.93 0 0 0-.352.85.949.949 0 0 0 .542.747l4.087 1.933c.01 0 .076.032.198.095.122.064.183.223.183.477v.908l-13.11.014v-.952c0-.195.051-.33.154-.403.102-.073.183-.12.241-.139l4.117-1.948a.893.893 0 0 0 .358-.3c.093-.132.154-.276.184-.432a.93.93 0 0 0-.352-.85c-.488-.39-.847-.942-1.077-1.655-.23-.713-.344-1.3-.344-1.758V9.447c0-.244.095-.503.286-.776a3.37 3.37 0 0 1 .754-.762 4.39 4.39 0 0 1 1.055-.579 3.26 3.26 0 0 1 1.186-.227zm0-.937c-.517 0-1.03.098-1.538.293-.508.195-.96.449-1.355.762a4.147 4.147 0 0 0-.96 1.054c-.243.39-.365.781-.365 1.172v2.344a6.302 6.302 0 0 0 .937 3.193c.225.371.503.689.835.952l-4.116 1.949-.469.27c-.312.181-.469.399-.469.652v1.421c0 .254.09.472.271.652a.91.91 0 0 0 .667.271H20.07c.254 0 .471-.09.652-.27a.889.889 0 0 0 .27-.653v-1.42c0-.274-.153-.496-.46-.667l-.462-.256-4.087-1.949c.322-.254.596-.559.82-.915.225-.357.405-.728.542-1.113.137-.386.235-.765.293-1.136a6.32 6.32 0 0 0 .088-.981V9.447c0-.39-.124-.781-.373-1.172a4.272 4.272 0 0 0-.967-1.054 5.185 5.185 0 0 0-1.348-.762 4.197 4.197 0 0 0-1.53-.293z" fill="#CBCBCB"/></g></svg>