<svg xmlns="http://www.w3.org/2000/svg" data-name="Слой 1" viewBox="0 0 164.41 98.99">
  <path fill="#fab31e" fill-rule="evenodd" d="M82.24 86.11a48.57 48.57 0 0 0 33 12.83 49.5 49.5 0 0 0 0-99 48.57 48.57 0 0 0-33 12.83 49.53 49.53 0 0 0 0 73.33z"/>
  <path fill="#fab31e" fill-rule="evenodd" d="M157.86 77.06a1.52 1.52 0 0 1 1.53-1.53 1.54 1.54 0 0 1 1.61 1.53 1.56 1.56 0 0 1-1.61 1.61 1.54 1.54 0 0 1-1.53-1.61zm1.53 1.27a1.31 1.31 0 0 0 1.27-1.27 1.23 1.23 0 0 0-1.27-1.19 1.22 1.22 0 0 0-1.19 1.19 1.29 1.29 0 0 0 1.19 1.27zm-.17-.51h-.34v-1.44h.59a.51.51 0 0 1 .34.08.29.29 0 0 1 .17.34.3.3 0 0 1-.25.34l.34.68h-.42l-.17-.59h-.25v-.25h.34c.08 0 .08-.09.08-.17a.17.17 0 0 0-.08-.17h-.34v1.19z"/>
  <path fill="#e40520" fill-rule="evenodd" d="M98.13 44.26c-.17-1.78-.51-3.48-.85-5.27H67.2a51.55 51.55 0 0 1 1.36-5.18h27.25a56.42 56.42 0 0 0-2-5.27H70.69c.85-1.78 1.78-3.57 2.8-5.27h17.42a44.54 44.54 0 0 0-3.74-5.18h-9.94a49 49 0 0 1 5-5.27 49.49 49.49 0 1 0 0 73.33 47.38 47.38 0 0 0 4.93-5.18h-9.94a58.8 58.8 0 0 1-3.74-5.27h17.43a39.52 39.52 0 0 0 2.89-5.27H70.69a55.28 55.28 0 0 1-2.12-5.18h27.24a53.46 53.46 0 0 0 1.44-5.27 52.43 52.43 0 0 0 .85-5.27 51.68 51.68 0 0 0 .25-5.18c0-1.78-.09-3.57-.25-5.27z"/>
  <path fill="#fff" fill-rule="evenodd" d="M157.86 61a1.54 1.54 0 0 1 1.53-1.61A1.56 1.56 0 0 1 161 61a1.57 1.57 0 1 1-3.14 0zm1.53 1.19a1.19 1.19 0 1 0 0-2.38 1.19 1.19 0 0 0 0 2.38zm-.17-.51h-.34v-1.36h.93a.4.4 0 0 1 .17.42.45.45 0 0 1-.25.34l.34.59h-.42l-.17-.51h-.25v-.25h.17c.09 0 .17 0 .17-.09s.08-.09.08-.17a.08.08 0 0 0-.08-.09c0-.09-.09 0-.17 0h-.17v1.1z"/>
  <path fill="#06326e" fill-rule="evenodd" d="M65.51 63.8a15.68 15.68 0 0 1-4 .68c-2.55 0-4.08-1.61-4.08-4.5a15.24 15.24 0 0 1 .17-1.87l.34-2 .25-1.61 2.29-13.93h5.1l-.59 3.06h3.23l-.76 5.1h-3.23l-1.36 8.38a3.9 3.9 0 0 0-.09.85c0 1.1.51 1.53 1.78 1.53a9.43 9.43 0 0 0 1.61-.17l-.68 4.5zm16.48-.17a20 20 0 0 1-5.44.76c-5.78 0-9.09-3.06-9.09-9.09 0-7.05 3.91-12.15 9.35-12.15 4.33 0 7.14 2.89 7.14 7.39a23.4 23.4 0 0 1-.59 5H72.73a2.39 2.39 0 0 0-.09.68c0 2.38 1.61 3.57 4.67 3.57a12.8 12.8 0 0 0 5.52-1.27l-.85 5.1zm-3.18-12.15v-1a2.35 2.35 0 0 0-2.55-2.63c-1.7 0-2.89 1.27-3.4 3.65h5.95zM24.73 64.06h-5.27l3.06-19.28-6.89 19.28h-3.65l-.43-19.2-3.22 19.2H3.14L7.31 39h7.73l.17 15.46L20.39 39h8.5l-4.16 25.06m12.82-9.09a4.87 4.87 0 0 0-1-.09c-3.06 0-4.59 1.19-4.59 3.06a1.92 1.92 0 0 0 2 2.12c2.55 0 3.57-2.12 3.65-5.1zm4.25 9.09h-4.59l.09-2.12c-1.19 1.61-2.8 2.46-5.61 2.46-2.55 0-4.76-2.29-4.76-5.61a9 9 0 0 1 .42-2.63c.85-3.14 4-5.1 8.84-5.18.59 0 1.53 0 2.38.09a4.49 4.49 0 0 0 .17-1.36c0-1.36-1.1-1.78-3.57-1.78a14.19 14.19 0 0 0-4.42.68l-.76.17-.34.08.76-4.59a20 20 0 0 1 6.2-1.1c4.59 0 7.05 2.12 7.05 6a19.28 19.28 0 0 1-.25 4l-1.19 7.31-.17 1.27-.09 1-.08.68-.08.59zm65.85-20.22a10.21 10.21 0 0 1 4.76 1.36l.93-5.44a11.71 11.71 0 0 0-1.36-.51l-2.12-.59a10.47 10.47 0 0 0-2.46-.25c-2.63 0-4.16.09-5.78 1a15.94 15.94 0 0 0-3.14 2.72l-.68-.17-5.44 3.82.25-2.12H87l-3.31 20.39h5.35l2-11s.76-1.53 1.1-2a3.1 3.1 0 0 1 3-1.27h.42a27.41 27.41 0 0 0-.26 3.91c0 6.63 3.74 10.79 9.52 10.79a17.18 17.18 0 0 0 4.67-.68l.93-5.78a9.59 9.59 0 0 1-4.5 1.36c-3.14 0-5-2.38-5-6.12 0-5.52 2.8-9.43 6.8-9.43zm45.16-4.85l-1.23 7.12a5.5 5.5 0 0 0-4.84-2.89 8 8 0 0 0-7.05 4.67v-.08l-3.4-2 .34-2.12h-5.69l-3.23 20.39h5.27l1.78-11s1.36-1.53 1.7-2a3.32 3.32 0 0 1 2.38-1.27 18.36 18.36 0 0 0-.93 6c0 5.1 2.63 8.5 6.54 8.5a6.18 6.18 0 0 0 4.93-2.29l-.25 2h5l4.08-25.07h-5.4zm-6.54 20.22c-1.78 0-2.72-1.36-2.72-4 0-4 1.7-6.88 4.16-6.88 1.87 0 2.8 1.44 2.8 4 0 4.08-1.7 6.88-4.25 6.88zm-24.6-4.24a4.87 4.87 0 0 0-1-.09c-3.06 0-4.59 1.19-4.59 3.06a1.92 1.92 0 0 0 2 2.12c2.55 0 3.57-2.12 3.65-5.1zm4.25 9.09h-4.67l.17-2.12c-1.19 1.61-2.8 2.46-5.61 2.46-2.63 0-4.93-2.21-4.93-5.61 0-4.84 3.65-7.82 9.43-7.82a22.28 22.28 0 0 1 2.29.09 5.2 5.2 0 0 0 .25-1.36c0-1.36-1.1-1.78-3.65-1.78a14.6 14.6 0 0 0-4.42.68l-.68.17-.34.08.76-4.59a20 20 0 0 1 6.2-1.1c4.59 0 7 2.12 7 6a14.61 14.61 0 0 1-.26 4l-1.1 7.31-.17 1.27-.17 1-.09.68v.59zM52.93 48a25.2 25.2 0 0 1 4 .34l.76-4.76c-1.53-.17-3.57-.42-4.76-.42-5.95 0-7.9 3.23-7.9 7 0 2.46 1.1 4.25 4 5.61 2.12 1 2.46 1.19 2.46 2.12 0 1.27-1.1 2-3.14 2a14.2 14.2 0 0 1-4.84-.85l-.59 4.67.08.09 1 .17a13.32 13.32 0 0 0 1.36.26c1.27.08 2.38.17 3.06.17 5.95 0 8.41-2.29 8.41-6.8 0-2.8-1.36-4.5-4-5.69-2.29-1-2.55-1.19-2.55-2.12s1-1.78 2.63-1.78z"/>
  <path fill="#fff" fill-rule="evenodd" d="M114.81 38.11l-1 5.47a10.21 10.21 0 0 0-4.76-1.36c-4 0-6.8 3.91-6.8 9.43 0 3.82 1.87 6.12 5 6.12a10.42 10.42 0 0 0 4.5-1.27l-.93 5.69a17.7 17.7 0 0 1-4.67.76c-5.78 0-9.35-4.16-9.35-10.88 0-8.92 4.93-15.21 12-15.21a10.47 10.47 0 0 1 2.46.25l2.12.51c.68.25.85.34 1.36.51zm-17.19 3.77h-.51c-1.78 0-2.8.85-4.42 3.31l.51-3.14h-4.84l-3.31 20.39h5.35c2-12.49 2.46-14.61 5-14.61h.34a21.35 21.35 0 0 1 2-5.86l-.17-.08zM66.87 62.19a11 11 0 0 1-3.82.68c-2.72 0-4.25-1.53-4.25-4.5a14 14 0 0 1 .17-1.78l.34-2 .25-1.61 2.25-13.99h5.27l-.59 3.06h2.72l-.68 5h-2.72l-1.44 8.5a3.18 3.18 0 0 0-.09.85c0 1 .51 1.44 1.78 1.44a3.54 3.54 0 0 0 1.44-.17l-.68 4.5zM46.39 48.51c0 2.55 1.19 4.33 4 5.69 2.21 1 2.55 1.36 2.55 2.21 0 1.27-.93 1.87-3.06 1.87a15.88 15.88 0 0 1-4.76-.76l-.76 4.67.25.09.93.17a5.54 5.54 0 0 0 1.44.17 19.66 19.66 0 0 0 2.89.17c5.61 0 8.24-2.12 8.24-6.8 0-2.8-1.1-4.42-3.74-5.69-2.29-1-2.55-1.27-2.55-2.21 0-1.1.93-1.61 2.63-1.61a33.15 33.15 0 0 1 3.82.25l.76-4.67a30.8 30.8 0 0 0-4.67-.42c-5.95 0-8.07 3.14-8 6.88zm109.09 13.94h-5l.26-2a6.36 6.36 0 0 1-4.93 2.21c-3.91 0-6.46-3.31-6.46-8.41 0-6.8 4-12.58 8.67-12.58a6.1 6.1 0 0 1 5.1 2.8l1.19-7.14h5.27L155.5 62.4zm-7.82-4.76c2.46 0 4.16-2.89 4.16-6.88 0-2.63-.93-4-2.8-4-2.38 0-4.16 2.8-4.16 6.8q0 4.08 2.8 4.08zm-64.48 4.33a17.43 17.43 0 0 1-5.52.85c-5.95 0-9-3.14-9-9.18 0-7 3.91-12.15 9.26-12.15 4.42 0 7.22 2.89 7.22 7.39a20.55 20.55 0 0 1-.68 5.1H73.92a1.66 1.66 0 0 0-.09.59c0 2.38 1.61 3.57 4.67 3.57a11.69 11.69 0 0 0 5.52-1.27l-.85 5.1zm-3-12.15v-1a2.35 2.35 0 0 0-2.55-2.63c-1.7 0-2.89 1.27-3.4 3.65h5.95zM26.09 62.45h-5.27l3.06-19.29-6.89 19.29h-3.65l-.43-19.12-3.22 19.12H4.76l4.16-25.07h7.65l.25 15.55 5.1-15.55h8.33l-4.16 25.07m13.16-9.1c-.51 0-.76-.09-1.19-.09-3 0-4.5 1.1-4.5 3.14a1.79 1.79 0 0 0 1.87 2c2.21 0 3.74-2 3.82-5.1zm3.91 9.09h-4.42l.09-2.12a6.62 6.62 0 0 1-5.61 2.46c-2.89 0-4.84-2.21-4.84-5.52 0-5 3.4-7.9 9.35-7.9.59 0 1.36.09 2.21.17a4.29 4.29 0 0 0 .17-1.27c0-1.36-.93-1.87-3.4-1.87a17.53 17.53 0 0 0-4.42.51l-.76.26-.51.08.76-4.59a21.38 21.38 0 0 1 6.37-1c4.59 0 7.05 2 7.05 5.95a25.71 25.71 0 0 1-.42 4.08l-1.19 7.22-.18 1.21-.09 1-.08.76-.08.51zm80.21-9.09c-.59 0-.85-.09-1.19-.09-3.06 0-4.59 1.1-4.59 3.14a1.85 1.85 0 0 0 2 2c2.12 0 3.74-2 3.82-5.1zm3.91 9.09h-4.47l.09-2.12a6.62 6.62 0 0 1-5.61 2.46c-2.89 0-4.84-2.21-4.84-5.52 0-5 3.4-7.9 9.35-7.9a21.27 21.27 0 0 1 2.12.17 5.41 5.41 0 0 0 .25-1.27c0-1.36-.93-1.87-3.4-1.87a18.24 18.24 0 0 0-4.5.51l-.68.26-.51.08.76-4.59a21.38 21.38 0 0 1 6.37-1c4.59 0 7 2 7 5.95a18.24 18.24 0 0 1-.42 4.08l-1.1 7.22-.16 1.21-.17 1-.09.76v.51zm14.27-20.56h-.51c-1.78 0-2.8.85-4.42 3.31l.51-3.14h-4.84l-3.23 20.39h5.27c2-12.49 2.46-14.61 5-14.61h.34a21.37 21.37 0 0 1 2-5.86l-.17-.08z"/>
</svg>
