<svg xmlns="http://www.w3.org/2000/svg" viewBox="0 0 234.33 129.31">
  <path fill="#f8a11a" d="M16.98 129.3c47.83-20.5 115-39.07 203.85-20.47l.93-22.55c-93.8-10.24-161.08 19.63-204.78 40.8v2.22"/>
  <path fill="#15569c" d="M67 69.86l20.73-68.4h18.5L85.5 69.86H67m-8.27-68.4l-16.64 29c-4.3 7.6-6.8 11.43-7.9 16.23h-.3c.3-6.1-.6-13.6-.68-17.8l-1.8-27.47H.3L0 3.3c8 0 12.74 4 14 12.25l6.07 54.26h19.25L78.04 1.5h-19.3m143.84 68.38l-.5-10.17h-23.1l-4.74 10.2h-20.07l36.4-68.2h24.66l6.17 68.23h-18.82zm-2.12-40.32a156.86 156.86 0 0 1 0-16.06h-.27c-1.2 3.4-6 13.58-8.1 18.6l-6.9 15h16.2l-.98-17.52m-74.8 42.22a51.73 51.73 0 0 1-27.9-7.83l8.8-13.5c5.54 3.1 9.9 6.7 20 6.7 3.22 0 6.32-.85 8.1-3.9 2.56-4.46-.6-6.85-7.83-10.94L123.26 40c-10.7-7.3-15.34-14.26-10.3-26.4C116.2 5.84 124.7-.05 138.74-.05a41.42 41.42 0 0 1 24 8.28L152.6 20.16c-5.15-4.17-9.43-6.3-14.33-6.3-3.9 0-6.87 1.52-7.9 3.55-1.92 3.9.63 6.5 6.26 10l4.24 2.7c13 8.2 16.1 16.8 12.85 24.84-5.6 13.84-16.58 16.93-28.07 16.93m100.8-59.72h-1.2V4.7h2.8c1.8 0 2.7.62 2.7 2.12a1.9 1.9 0 0 1-1.93 2l2.08 3.24h-1.38l-1.9-3.17h-1.16v3.2zm1.37-4.2c.9 0 1.72-.1 1.72-1.16 0-.9-.88-1-1.6-1h-1.48v2.1h1.36zm0 7.07a6.7 6.7 0 1 1 6.55-6.7 6.44 6.44 0 0 1-6.6 6.7zm0-12.22a5.2 5.2 0 0 0-5.15 5.54c0 3 2 5.54 5.15 5.54 2.87 0 5.12-2.24 5.12-5.52a5.2 5.2 0 0 0-5.12-5.53"/>
</svg>
