<svg xmlns="http://www.w3.org/2000/svg" viewBox="0 0 264 68.94">
  <path fill="#3561b6" d="M34.47 0a34.2 34.2 0 0 1 15.1 3.5q1.07.5 2.15 1.13l-3.17 2.84-4.77-4.93-8 7.18L31 4.5 16 18l9.6 10.6-3.77 3.32 9.47 10.6-3.75 3.32L41.08 60.9l8-7.4 6.94 7.92a36.9 36.9 0 0 1-4.54 3 34.46 34.46 0 1 1-17-64.44"/>
  <path fill="#3561b6" d="M28.2 32.3l8.2-7.4 7.37 8.24-8.2 7.38-7.38-8.2M34 46.46l8.2-7.38 7.38 8.2-8.2 7.38-7.38-8.2M22.32 18.3l8.2-7.38 7.38 8.2-8.23 7.37-7.38-8.2m15-4l6.1-5.5 5.6 6.1-6.15 5.53-5.5-6.15m10.9 25.3l6.13-5.55 5.5 6.15-6.2 5.5-5.52-6.13m5.4 12.5l6.14-5.5 5.54 6.12-6.16 5.52-5.5-6.17m2.5-28.5l4.1-3.7L64 24l-4.1 3.7-3.7-4.1m-5.24-12.2l4.1-3.7 3.7 4.1-4.07 3.7-3.7-4.1m10.4 24.4l4.1-3.68 3.7 4.1-4.1 3.7-3.7-4.1M43 26.7l6.15-5.56 5.5 6.16-6.16 5.53-5.5-6.15m120.9-5.45l-.2.13-.2-.13a6.78 6.78 0 0 0-4.9-1.8c-4.46 0-7.36 3.1-7.36 7.9v22.55h4.42V27.34c0-3.2 2.17-3.47 2.9-3.47a3.12 3.12 0 0 1 1.9.64 3.76 3.76 0 0 1 1 2.9v22.5h4.44V27.4c0-3.2 2.2-3.47 2.9-3.47a3.13 3.13 0 0 1 1.93.64 3.77 3.77 0 0 1 1 2.85v22.5h4.42v-22.6a8.2 8.2 0 0 0-2.2-6 7.36 7.36 0 0 0-5.13-1.92 7 7 0 0 0-4.9 1.8m32.28 8.64a10.4 10.4 0 0 0-14.4 0c-2.3 2.5-2.74 6-2.74 8.8s.45 6.23 2.76 8.74a10.4 10.4 0 0 0 14.4 0c2.3-2.5 2.73-6 2.73-8.74s-.46-6.3-2.77-8.8zm-1.73 9.77c0 2.2 0 4.5-1.6 6.3a5.33 5.33 0 0 1-3.94 1.5 5.23 5.23 0 0 1-3.8-1.42c-1.6-1.75-1.6-4.1-1.6-6.24v-2c0-2.1 0-4.5 1.6-6.16a5 5 0 0 1 3.8-1.55 5.1 5.1 0 0 1 3.9 1.54c1.6 1.65 1.6 4 1.6 6.15v2m8.2-12.3l3.73.07v2a12.76 12.76 0 0 1 3.16-1.7 8.26 8.26 0 0 1 3.65-.7 6.9 6.9 0 0 1 5.5 2.16 8.47 8.47 0 0 1 1.86 5.7v15h-4.1V34.5c0-3.66-2.32-4.63-4.25-4.63a8.32 8.32 0 0 0-5.52 2.3v17.6h-4V27.33m38 18.12a17.5 17.5 0 0 1-2.64 1 10.6 10.6 0 0 1-3.5.58 6.9 6.9 0 0 1-5.1-1.86c-.8-.78-1.63-2.3-1.63-5v-.6h13.9v-1c0-3.6-.17-6.54-2.4-8.92a8.72 8.72 0 0 0-6.57-2.7 9 9 0 0 0-6.87 3c-2.3 2.64-2.6 6.1-2.6 8.35 0 2.5.4 6.24 2.7 8.8a10.05 10.05 0 0 0 7.84 3.2 14.2 14.2 0 0 0 5.27-.9 28.4 28.4 0 0 0 2.77-1.27l-1.3-2.68zm-12.8-9.32a6.9 6.9 0 0 1 1.47-4.76 4.35 4.35 0 0 1 3.4-1.5 4.3 4.3 0 0 1 3.15 1.1c1.5 1.4 1.5 3.15 1.5 4.7v1h-9.5v-.55M264 27.4l-8.8 26.47a12.2 12.2 0 0 1-2.12 4.18 5.73 5.73 0 0 1-4.43 1.87 7.06 7.06 0 0 1-3.53-.9 8.9 8.9 0 0 1-1.86-1.4l1.93-2.45a7.67 7.67 0 0 0 1.1.9 4.2 4.2 0 0 0 2.1.58 2.9 2.9 0 0 0 2.4-1.16 13.84 13.84 0 0 0 1.2-2.8l.5-1.8-9.5-23.5h4.42l5.64 14a29.66 29.66 0 0 1 1.3 4h.15c.7-2.7 1-3.6 1.6-5.3l4-12.78h3.67M91.1 48.5l.12-.2.2.2a7.23 7.23 0 0 0 4.94 1.8c4.43 0 7.33-3.13 7.33-7.9V19.9h-4.5v22.56c0 3.2-2.2 3.4-2.9 3.4a2.6 2.6 0 0 1-2-.63 3.6 3.6 0 0 1-1-2.74V19.8h-4.4v22.6c0 3.2-2.18 3.4-2.9 3.4a2.54 2.54 0 0 1-1.85-.62 3.6 3.6 0 0 1-1-2.74v-22.6h-4.5V42.4a8.16 8.16 0 0 0 2.2 5.9 7.24 7.24 0 0 0 5.12 2 7.6 7.6 0 0 0 5-1.8m33.26-3.07a21.54 21.54 0 0 1-2.57 1 10.6 10.6 0 0 1-3.48.58 6.9 6.9 0 0 1-5.1-1.8 7.23 7.23 0 0 1-1.6-5v-.6h13.72v-1c0-3.6-.13-6.52-2.3-8.9a9 9 0 0 0-6.63-2.63 9.08 9.08 0 0 0-6.74 2.9c-2.38 2.7-2.57 6.17-2.57 8.35 0 2.5.32 6.23 2.63 8.8a10.38 10.38 0 0 0 7.82 3.2 14.56 14.56 0 0 0 5.27-1 17.7 17.7 0 0 0 2.7-1.3zM111.6 36.1a6.73 6.73 0 0 1 1.48-4.74 4.3 4.3 0 0 1 3.34-1.48 4.36 4.36 0 0 1 3.1 1.15c1.5 1.35 1.5 3.08 1.5 4.7v.9h-9.45v-.52m32.83-6.8a9.44 9.44 0 0 0-6.2-2.24 18 18 0 0 0-2.9.33c-.62.2-1.46.5-2.16.77v-8.8h-4v28.6a16.34 16.34 0 0 0 8.43 2.4 9.4 9.4 0 0 0 7.9-3.5 13.67 13.67 0 0 0 2.25-8.23c-.04-2.45-.24-6.62-3.32-9.25zm-6.96.65a6 6 0 0 1 4.3 1.65c1.43 1.53 1.43 3.84 1.43 5.84v1.9c0 3.8-.64 5.33-1.22 6.17a5.22 5.22 0 0 1-4.3 1.87 12 12 0 0 1-2.63-.45 12.4 12.4 0 0 1-1.83-.9V31.3"/>
</svg>
