<svg xmlns="http://www.w3.org/2000/svg" xmlns:xlink="http://www.w3.org/1999/xlink" width="40" height="40" viewBox="0 0 40 40"><defs><path id="a" d="M62.19 16a14.21 14.21 0 0 0-1.88 4.53c-.59 2.8-.34 5.71.72 8.36a14.6 14.6 0 0 0 5.7 7.07c1.19.76 3.84 2.41 7.36 2.1 1.28-.11 3.58-.31 5.31-2.22 1.73-1.91 1.73-4.57 1.72-5.45 0-.68-.09-1.78-.21-1.79-.13 0-.23.7-.28 1.03-.03.27-.06.54-.06.82-.05.85-.93 1.57-1.3 1.86-1.26 1.02-6.57 2.36-11.11-.61-3.11-2.04-4.41-5.13-4.93-6.38A18.25 18.25 0 0 1 62.19 16z"/><path id="b" d="M65.94 14.53c-1.45 2.44-3.17 5.34-2.92 9.17.16 2.04.82 4.01 1.92 5.73.68 1.06 2.14 3.36 5.08 4.45.67.24 3.74 1.38 6.55-.11 1.48-.79 2.39-2.06 3.2-3.19.53-.71.96-1.49 1.25-2.33.16-.48.27-.97.34-1.46a7.35 7.35 0 0 1-4.72 3.66c-3.04.64-5.48-1.23-6.06-1.71-2.52-2.03-3.08-4.99-3.45-7.05-.6-3.62-.13-7.34 1.37-10.69a24.06 24.06 0 0 0-2.56 3.53z"/><path id="c" d="M81.62 27.14a4.77 4.77 0 0 1-2.23-2.25c-1.2-2.72 1.11-5.59 1.39-5.92 1.95-2.35 4.91-2.6 6.31-2.72 5.34-.44 9.4 2.77 10.62 3.81a24.23 24.23 0 0 0-6.32-5.75c-1.06-.7-2.2-1.26-3.41-1.65a11.08 11.08 0 0 0-7.33-.05c-.59.22-4 1.54-5.73 5.13a7.6 7.6 0 0 0-.89 4.34c.08.64.37 3.03 2.49 4.46a5.94 5.94 0 0 0 5.1.6z"/><path id="d" d="M89.78 10.02a16.2 16.2 0 0 0-9.69-.51c-1.45.39-4.91 1.31-7.46 4.59-.64.82-3.37 4.35-2.44 8.68.13.58.94 4.39 4.08 5.58.17.06 3.03 1.1 5.06-.51.41-.33.75-.74 1.01-1.19-.82.36-1.74.43-2.6.2-2.17-.66-2.85-3.33-3.07-4.22a8.64 8.64 0 0 1 .31-5.03c1.4-3.79 4.97-5.45 6.6-6.21a15.96 15.96 0 0 1 8.2-1.38z"/><path id="e" d="M81.86 25.72A4.38 4.38 0 0 1 81 23.1c.08-2.5 2.78-4.25 4.63-4.81 3.79-1.17 7.33 1.5 8.16 2.13 4.69 3.55 5.23 9.51 5.38 11.17.32 4.24-.77 8.46-3.09 12 .14-.92.31-2.2.42-3.75.18-2.36.34-4.32.06-6.5-.23-1.77-.56-4.43-2.41-7-.72-1.02-2.99-4.17-6.54-4.31-.42 0-3.18-.12-4.82 1.88a4.95 4.95 0 0 0-.93 1.81z"/><path id="f" d="M87.06 48.55A16.8 16.8 0 0 0 92.37 36c-.04-2.13-.1-5.34-2.35-7.87-1.57-1.78-4.4-3.4-6.11-2.55-.95.47-1.29 1.57-1.64 1.44-.35-.13-.42-1.68.17-2.79.98-1.78 3.55-2.27 5.13-2.23 3.95.12 7.51 3.83 8.84 7.63 2.04 5.77-1.29 11.06-2.19 12.51a17.71 17.71 0 0 1-7.16 6.41z"/><path id="g" d="M70 46.53a13.43 13.43 0 0 0 9.29 2.55 13.44 13.44 0 0 0 7.45-3.55 13.6 13.6 0 0 0 4.54-7.49c.28-1.36 1.08-5.27-1.26-8.2-1.26-1.57-3.82-3.38-5.89-2.69-.22.07-.42.17-.61.29 1.11.42 2.1 1.1 2.89 2 2.4 2.74 2.18 6.96.96 9.74-2.17 4.87-7.95 6.19-10.89 6.87-2.13.48-4.31.64-6.48.48z"/><path id="h" d="M65 38.56a13.97 13.97 0 0 0 12.17 1.37c1.54-.55 3.31-1.17 4.74-2.9.31-.37 2.84-3.54 1.68-7.29A7.43 7.43 0 0 0 80.86 26a7.65 7.65 0 0 1 4.42 2.62c.1.11 1.77 2.02 2.28 4.26.89 3.87-1.77 8.63-5.66 10.71-4.02 2.12-8.13.75-9.69.23A15.31 15.31 0 0 1 65 38.56z"/></defs><use fill="#f8b835" xlink:href="#a" transform="translate(-60 -9)"/><use fill="#f08295" xlink:href="#b" transform="translate(-60 -9)"/><use fill="#98d9f1" xlink:href="#c" transform="translate(-60 -9)"/><use fill="#3496cf" xlink:href="#d" transform="translate(-60 -9)"/><use fill="#79a446" xlink:href="#e" transform="translate(-60 -9)"/><use fill="#c8e093" xlink:href="#f" transform="translate(-60 -9)"/><use fill="#f28635" xlink:href="#g" transform="translate(-60 -9)"/><use fill="#ea4531" xlink:href="#h" transform="translate(-60 -9)"/></svg>