<svg id="SvgjsSvg1000" xmlns="http://www.w3.org/2000/svg" version="1.1" xmlns:xlink="http://www.w3.org/1999/xlink" xmlns:svgjs="http://svgjs.com/svgjs" width="121" height="41" viewBox="0 0 121 41"><title>zalooka</title><desc>Created with Avocode.</desc><defs id="SvgjsDefs1001"></defs><path id="SvgjsPath1007" d="M108 33.41L114.19 24.279999999999994L114.19 24.229999999999993L108.50999999999999 24.229999999999993L108.50999999999999 22.999999999999993L116.03999999999999 22.999999999999993L116.03999999999999 23.889999999999993L109.89999999999999 32.99999999999999L109.89999999999999 33.04999999999999L116.13999999999999 33.04999999999999L116.13999999999999 34.26999999999999L107.99999999999999 34.26999999999999Z " fill="#363c44" fill-opacity="1" transform="matrix(1,0,0,1,-59,-9)"></path><path id="SvgjsPath1008" d="M123.07 34.29L122.94999999999999 33.269999999999996L122.89999999999999 33.269999999999996C122.32 34.05 121.41 34.489999999999995 120.44999999999999 34.47C119.80999999999999 34.519999999999996 119.18999999999998 34.3 118.71999999999998 33.85C118.25999999999999 33.410000000000004 117.98999999999998 32.79 117.99999999999999 32.15C117.99999999999999 30.189999999999998 119.71999999999998 29.119999999999997 122.82 29.14L122.82 28.98C122.82 28.31 122.63999999999999 27.11 121 27.11C120.25 27.11 119.53 27.32 118.89 27.71L118.56 26.740000000000002C119.36 26.250000000000004 120.28 25.990000000000002 121.21000000000001 26.000000000000004C123.66000000000001 26.000000000000004 124.26 27.700000000000003 124.26 29.310000000000002L124.26 32.34C124.25 32.99 124.29 33.64 124.39 34.28ZM122.85 30.16C121.25999999999999 30.12 119.46 30.41 119.46 31.98C119.42999999999999 32.36 119.55999999999999 32.730000000000004 119.82 33C120.08999999999999 33.27 120.46 33.41 120.83 33.38C121.7 33.410000000000004 122.48 32.86 122.77 32.03C122.82 31.880000000000003 122.85 31.720000000000002 122.85 31.560000000000002Z " fill="#363c44" fill-opacity="1" transform="matrix(1,0,0,1,-59,-9)"></path><path id="SvgjsPath1009" d="M126 22L127.46 22L127.46 33.88L126 33.88Z " fill="#363c44" fill-opacity="1" transform="matrix(1,0,0,1,-59,-9)"></path><path id="SvgjsPath1010" d="M133.84 34.46C131.67000000000002 34.46 130 32.86 130 30.3C130 27.59 131.76 26 133.97 26C136.29 25.99 137.83 27.69 137.83 30.17C137.83 33.14 135.78 34.46 133.84 34.46ZM133.91 33.36C135.32999999999998 33.36 136.34 32.04 136.34 30.22C136.34 28.849999999999998 135.66 27.11 133.94 27.11C132.22 27.11 131.47 28.71 131.47 30.25C131.47 32.03 132.48 33.36 133.91 33.36Z " fill="#363c44" fill-opacity="1" transform="matrix(1,0,0,1,-59,-9)"></path><path id="SvgjsPath1011" d="M142.84 34.46C140.67000000000002 34.46 139 32.86 139 30.3C139 27.59 140.76 26 142.97 26C145.27 25.99 146.83 27.69 146.83 30.17C146.83 33.14 144.78 34.46 142.84 34.46ZM142.91 33.36C144.32999999999998 33.36 145.34 32.04 145.34 30.22C145.34 28.849999999999998 144.66 27.11 142.94 27.11C141.22 27.11 140.47 28.71 140.47 30.25C140.47 32.03 141.48 33.36 142.91 33.36Z " fill="#363c44" fill-opacity="1" transform="matrix(1,0,0,1,-59,-9)"></path><path id="SvgjsPath1012" d="M149.43 29.49L149.47 29.49C149.66 29.209999999999997 149.95 28.86 150.18 28.569999999999997L152.53 25.779999999999998L154.28 25.779999999999998L151.19 29.11L154.71 33.879999999999995L152.94 33.879999999999995L150.18 29.999999999999996L149.43 30.849999999999998L149.43 33.89L148 33.89L148 22L149.43 22Z " fill="#363c44" fill-opacity="1" transform="matrix(1,0,0,1,-59,-9)"></path><path id="SvgjsPath1013" d="M161.07 34.29L160.95 33.269999999999996L160.89999999999998 33.269999999999996C160.31999999999996 34.05 159.40999999999997 34.489999999999995 158.45 34.47C157.81 34.519999999999996 157.19 34.3 156.72 33.85C156.26 33.410000000000004 155.99 32.79 156 32.15C156 30.189999999999998 157.72 29.119999999999997 160.82 29.14L160.82 28.98C160.82 28.31 160.64 27.11 159 27.11C158.25 27.11 157.53 27.32 156.89 27.71L156.55999999999997 26.740000000000002C157.35999999999999 26.250000000000004 158.27999999999997 25.990000000000002 159.20999999999998 26.000000000000004C161.65999999999997 26.000000000000004 162.26 27.700000000000003 162.26 29.310000000000002L162.26 32.34C162.25 32.99 162.29 33.64 162.39 34.28ZM160.85 30.16C159.26 30.12 157.46 30.41 157.46 31.98C157.43 32.36 157.56 32.730000000000004 157.82000000000002 33C158.09000000000003 33.27 158.46 33.41 158.83 33.38C159.70000000000002 33.410000000000004 160.48000000000002 32.86 160.77 32.03C160.82000000000002 31.880000000000003 160.85000000000002 31.720000000000002 160.85000000000002 31.560000000000002Z " fill="#363c44" fill-opacity="1" transform="matrix(1,0,0,1,-59,-9)"></path><path id="SvgjsPath1014" d="M164 33.04C163.99 32.76 164.09 32.5 164.28 32.3C164.46 32.099999999999994 164.72 31.999999999999996 164.99 31.999999999999996C165.42000000000002 31.979999999999997 165.82000000000002 32.22 165.99 32.62C166.17000000000002 33.01 166.10000000000002 33.47 165.8 33.779999999999994C165.51000000000002 34.099999999999994 165.05 34.199999999999996 164.66000000000003 34.03999999999999C164.26000000000002 33.879999999999995 164.00000000000003 33.489999999999995 164.00000000000003 33.059999999999995Z " fill="#363c44" fill-opacity="1" transform="matrix(1,0,0,1,-59,-9)"></path><path id="SvgjsPath1015" d="M168.07 28.72C168.07 27.77 168.07 26.939999999999998 168 26.189999999999998L169.26 26.189999999999998L169.31 27.779999999999998L169.4 27.779999999999998C169.68 26.769999999999996 170.57 26.049999999999997 171.61 25.999999999999996C171.75 25.999999999999996 171.89000000000001 26.019999999999996 172.03 26.049999999999997L172.03 27.449999999999996C171.87 27.409999999999997 171.7 27.389999999999997 171.53 27.399999999999995C170.51 27.399999999999995 169.78 28.179999999999996 169.58 29.289999999999996C169.54000000000002 29.509999999999994 169.52 29.739999999999995 169.51000000000002 29.969999999999995L169.51000000000002 34.28999999999999L168.07000000000002 34.28999999999999Z " fill="#363c44" fill-opacity="1" transform="matrix(1,0,0,1,-59,-9)"></path><path id="SvgjsPath1016" d="M179.75 31.89C179.75 32.74 179.75 33.46 179.82 34.1L178.53 34.1L178.44 32.77L178.41 32.77C177.85999999999999 33.720000000000006 176.85 34.300000000000004 175.76 34.28C174.5 34.28 173 33.58 173 30.740000000000002L173 26L174.44 26L174.44 30.490000000000002C174.44 32.03 174.91 33.06 176.23 33.06C177.07999999999998 33.050000000000004 177.84 32.52 178.14999999999998 31.730000000000004C178.23999999999998 31.490000000000006 178.28999999999996 31.230000000000004 178.27999999999997 30.970000000000002L178.27999999999997 26.000000000000004L179.73999999999998 26.000000000000004Z " fill="#363c44" fill-opacity="1" transform="matrix(1,0,0,1,-59,-9)"></path><path id="SvgjsPath1017" d="M62.19 16C61.309999999999995 17.38 60.669999999999995 18.92 60.309999999999995 20.53C59.71999999999999 23.330000000000002 59.96999999999999 26.240000000000002 61.029999999999994 28.89C62.13999999999999 31.8 64.13 34.28 66.72999999999999 35.96C67.91999999999999 36.72 70.57 38.370000000000005 74.08999999999999 38.06C75.36999999999999 37.95 77.66999999999999 37.75 79.39999999999999 35.84C81.13 33.93000000000001 81.13 31.270000000000003 81.11999999999999 30.390000000000004C81.11999999999999 29.710000000000004 81.02999999999999 28.610000000000003 80.91 28.600000000000005C80.78 28.600000000000005 80.67999999999999 29.300000000000004 80.63 29.630000000000006C80.6 29.900000000000006 80.57 30.170000000000005 80.57 30.450000000000006C80.52 31.300000000000008 79.63999999999999 32.02 79.27 32.31000000000001C78.00999999999999 33.33000000000001 72.69999999999999 34.67000000000001 68.16 31.70000000000001C65.05 29.66000000000001 63.75 26.57000000000001 63.23 25.32000000000001C62.63999999999999 23.830000000000013 62.26 22.260000000000012 62.099999999999994 20.67000000000001C61.92999999999999 19.11000000000001 61.959999999999994 17.550000000000008 62.19 16.000000000000007Z " fill="#f8b835" fill-opacity="1" transform="matrix(1,0,0,1,-59,-9)"></path><path id="SvgjsPath1018" d="M65.94 14.53C64.49 16.97 62.769999999999996 19.869999999999997 63.019999999999996 23.7C63.17999999999999 25.74 63.839999999999996 27.71 64.94 29.43C65.62 30.49 67.08 32.79 70.02 33.88C70.69 34.120000000000005 73.75999999999999 35.260000000000005 76.57 33.77C78.05 32.980000000000004 78.96 31.710000000000004 79.77 30.580000000000002C80.3 29.87 80.72999999999999 29.090000000000003 81.02 28.25C81.17999999999999 27.77 81.28999999999999 27.28 81.36 26.79C81.14 27.21 79.67999999999999 29.799999999999997 76.64 30.45C73.6 31.09 71.16 29.22 70.58 28.74C68.06 26.709999999999997 67.5 23.75 67.13 21.689999999999998C66.53 18.069999999999997 67 14.349999999999998 68.5 10.999999999999998C67.54 12.089999999999998 66.69 13.279999999999998 65.94 14.529999999999998Z " fill="#f08295" fill-opacity="1" transform="matrix(1,0,0,1,-59,-9)"></path><path id="SvgjsPath1019" d="M81.62 27.14C80.64 26.67 79.86 25.87 79.39 24.89C78.19 22.17 80.5 19.3 80.78 18.97C82.73 16.619999999999997 85.69 16.369999999999997 87.09 16.25C92.43 15.81 96.49000000000001 19.02 97.71000000000001 20.06C95.96000000000001 17.779999999999998 93.82000000000001 15.84 91.39000000000001 14.309999999999999C90.33000000000001 13.61 89.19000000000001 13.049999999999999 87.98000000000002 12.659999999999998C86.84000000000002 12.299999999999999 83.96000000000002 11.399999999999999 80.65000000000002 12.609999999999998C80.06000000000002 12.829999999999998 76.65000000000002 14.149999999999999 74.92000000000002 17.74C74.20000000000002 19.06 73.89000000000001 20.57 74.03000000000002 22.08C74.11000000000001 22.72 74.40000000000002 25.11 76.52000000000001 26.54C78.80000000000001 28.08 81.33000000000001 27.25 81.62 27.14Z " fill="#98d9f1" fill-opacity="1" transform="matrix(1,0,0,1,-59,-9)"></path><path id="SvgjsPath1020" d="M89.78 10.02C86.68 8.86 83.3 8.69 80.09 9.51C78.64 9.9 75.18 10.82 72.63000000000001 14.1C71.99000000000001 14.92 69.26 18.45 70.19000000000001 22.78C70.32000000000001 23.36 71.13000000000001 27.17 74.27000000000001 28.36C74.44000000000001 28.419999999999998 77.30000000000001 29.46 79.33000000000001 27.849999999999998C79.74000000000001 27.52 80.08000000000001 27.11 80.34000000000002 26.659999999999997C79.52000000000002 27.019999999999996 78.60000000000002 27.089999999999996 77.74000000000002 26.859999999999996C75.57000000000002 26.199999999999996 74.89000000000003 23.529999999999994 74.67000000000003 22.639999999999997C74.27000000000002 20.97 74.38000000000002 19.22 74.98000000000003 17.609999999999996C76.38000000000004 13.819999999999997 79.95000000000003 12.159999999999997 81.58000000000003 11.399999999999995C84.15000000000002 10.219999999999995 86.97000000000003 9.749999999999995 89.78000000000003 10.019999999999996Z " fill="#3496cf" fill-opacity="1" transform="matrix(1,0,0,1,-59,-9)"></path><path id="SvgjsPath1021" d="M81.86 25.72C81.3 24.97 81 24.049999999999997 81 23.099999999999998C81.08 20.599999999999998 83.78 18.849999999999998 85.63 18.29C89.42 17.119999999999997 92.96 19.79 93.78999999999999 20.419999999999998C98.47999999999999 23.97 99.02 29.93 99.16999999999999 31.589999999999996C99.48999999999998 35.83 98.39999999999999 40.05 96.07999999999998 43.589999999999996C96.21999999999998 42.669999999999995 96.38999999999999 41.38999999999999 96.49999999999999 39.839999999999996C96.67999999999999 37.48 96.83999999999999 35.519999999999996 96.55999999999999 33.339999999999996C96.32999999999998 31.569999999999997 95.99999999999999 28.909999999999997 94.14999999999999 26.339999999999996C93.42999999999999 25.319999999999997 91.16 22.169999999999995 87.60999999999999 22.029999999999998C87.18999999999998 22.029999999999998 84.42999999999998 21.909999999999997 82.78999999999999 23.909999999999997C82.35999999999999 24.439999999999998 82.03999999999999 25.059999999999995 81.85999999999999 25.719999999999995Z " fill="#79a446" fill-opacity="1" transform="matrix(1,0,0,1,-59,-9)"></path><path id="SvgjsPath1022" d="M87.06 48.55C88.91 46.82 90.35000000000001 44.68 91.26 42.309999999999995C92.03 40.3 92.41000000000001 38.14999999999999 92.37 35.99999999999999C92.33 33.86999999999999 92.27000000000001 30.659999999999993 90.02000000000001 28.129999999999992C88.45000000000002 26.34999999999999 85.62 24.729999999999993 83.91000000000001 25.57999999999999C82.96000000000001 26.04999999999999 82.62 27.14999999999999 82.27000000000001 27.019999999999992C81.92000000000002 26.889999999999993 81.85000000000001 25.339999999999993 82.44000000000001 24.229999999999993C83.42000000000002 22.449999999999992 85.99000000000001 21.959999999999994 87.57000000000001 21.999999999999993C91.52000000000001 22.119999999999994 95.08000000000001 25.82999999999999 96.41000000000001 29.629999999999992C98.45000000000002 35.39999999999999 95.12 40.68999999999999 94.22000000000001 42.13999999999999C92.46000000000001 44.89999999999999 89.99000000000001 47.11999999999999 87.06000000000002 48.55Z " fill="#c8e093" fill-opacity="1" transform="matrix(1,0,0,1,-59,-9)"></path><path id="SvgjsPath1023" d="M70 46.53C72.68 48.5 75.99 49.410000000000004 79.28999999999999 49.08C82.08 48.71 84.67999999999999 47.47 86.74 45.53C87.75999999999999 44.63 90.44 42.18 91.28 38.04C91.56 36.68 92.36 32.769999999999996 90.02 29.84C88.75999999999999 28.27 86.2 26.46 84.13 27.15C83.91 27.22 83.71 27.32 83.52 27.439999999999998C84.63 27.86 85.61999999999999 28.54 86.41 29.439999999999998C88.81 32.18 88.59 36.4 87.36999999999999 39.18C85.19999999999999 44.05 79.41999999999999 45.37 76.47999999999999 46.05C74.35 46.529999999999994 72.16999999999999 46.69 69.99999999999999 46.529999999999994Z " fill="#f28635" fill-opacity="1" transform="matrix(1,0,0,1,-59,-9)"></path><path id="SvgjsPath1024" d="M65 38.56C66.95 39.78 69.15 40.510000000000005 71.44 40.690000000000005C73.38 40.84 75.33 40.580000000000005 77.17 39.93000000000001C78.71000000000001 39.38000000000001 80.48 38.760000000000005 81.91 37.03000000000001C82.22 36.66000000000001 84.75 33.49000000000001 83.59 29.74000000000001C83.10000000000001 28.230000000000008 82.14 26.92000000000001 80.86 26.000000000000007C81.57 26.140000000000008 82.25 26.380000000000006 82.89 26.710000000000008C83.8 27.180000000000007 84.61 27.83000000000001 85.28 28.620000000000008C85.38 28.730000000000008 87.05 30.640000000000008 87.56 32.88000000000001C88.45 36.75000000000001 85.79 41.51000000000001 81.9 43.59000000000001C77.88000000000001 45.71000000000001 73.77000000000001 44.34000000000001 72.21000000000001 43.82000000000001C69.35000000000001 42.830000000000005 66.84 41.00000000000001 65.00000000000001 38.56000000000001Z " fill="#ea4531" fill-opacity="1" transform="matrix(1,0,0,1,-59,-9)"></path></svg>