<?xml version="1.0" encoding="UTF-8" standalone="no"?>
<svg width="27px" height="28px" viewBox="0 0 27 28" version="1.1" xmlns="http://www.w3.org/2000/svg" xmlns:xlink="http://www.w3.org/1999/xlink">
    <!-- Generator: Sketch 41 (35326) - http://www.bohemiancoding.com/sketch -->
    <title>Group 3</title>
    <desc>Created with Sketch.</desc>
    <defs></defs>
    <g id="Symbols" stroke="none" stroke-width="1" fill="none" fill-rule="evenodd">
        <g id="menu-phone" transform="translate(-285.000000, -11.000000)">
            <g id="menu-ipad" transform="translate(-1.000000, 10.000000)">
                <g id="Group-2" transform="translate(286.000000, 0.000000)">
                    <g id="Group-3" transform="translate(0.000000, 1.000000)">
                        <rect id="Rectangle-3" fill="#F2F2F2" x="0" y="1.77635684e-15" width="27" height="27.3170732" rx="13.5"></rect>
                        <path d="M13.5073242,7.1033608 C13.8979512,7.1033608 14.2910136,7.17904364 14.6865234,7.33041159 C15.0820332,7.48177953 15.4335922,7.67220731 15.7412109,7.90170065 C16.0488297,8.13119398 16.300292,8.38265631 16.4956055,8.65609518 C16.6909189,8.92953405 16.7885742,9.19320328 16.7885742,9.4471108 L16.7885742,11.7908608 C16.7885742,12.2400818 16.6835948,12.8235721 16.4736328,13.5413491 C16.2636708,14.2591261 15.9047877,14.8133198 15.3969727,15.2039467 C15.2700189,15.3016035 15.174805,15.426114 15.1113281,15.5774819 C15.0478512,15.7288498 15.0258788,15.8875397 15.0454102,16.0535561 C15.0649415,16.2195726 15.1235347,16.3684969 15.2211914,16.5003335 C15.3188481,16.6321701 15.4409172,16.7322667 15.5874023,16.8006264 L19.6743164,18.7342202 C19.6840821,18.7342202 19.7499994,18.7659581 19.8720703,18.829435 C19.9941412,18.8929119 20.0551758,19.0516017 20.0551758,19.3055092 L20.0551758,20.2137124 L6.94482422,20.2283608 L6.94482422,19.2762124 C6.94482422,19.0808989 6.99609324,18.9466229 7.09863281,18.8733803 C7.20117239,18.8001378 7.28173799,18.7537515 7.34033203,18.7342202 L11.456543,16.785978 C11.6030281,16.7176183 11.7226558,16.6175216 11.8154297,16.485685 C11.9082036,16.3538484 11.9692381,16.2098069 11.9985352,16.0535561 C12.0180665,15.8875397 11.9960941,15.7288498 11.9326172,15.5774819 C11.8691403,15.426114 11.7739264,15.3016035 11.6469727,15.2039467 C11.158689,14.8133198 10.7998058,14.2615675 10.5703125,13.5486733 C10.3408192,12.8357791 10.2260742,12.2498475 10.2260742,11.7908608 L10.2260742,9.4471108 C10.2260742,9.20296896 10.3212881,8.94418248 10.5117188,8.67074362 C10.7021494,8.39730475 10.9536117,8.14340104 11.2661133,7.90902487 C11.5786148,7.67464869 11.9301738,7.48177953 12.3208008,7.33041159 C12.7114277,7.17904364 13.1069316,7.1033608 13.5073242,7.1033608 Z M13.5073242,6.1658608 C12.9897435,6.1658608 12.4770533,6.26351608 11.9692383,6.45882955 C11.4614232,6.65414303 11.0097676,6.90804674 10.6142578,7.2205483 C10.218748,7.53304987 9.898927,7.88460885 9.65478516,8.2752358 C9.41064331,8.66586276 9.28857422,9.05648385 9.28857422,9.4471108 L9.28857422,11.7908608 C9.28857422,12.0447683 9.3178708,12.3548238 9.37646484,12.7210366 C9.43505889,13.0872494 9.53515554,13.4632222 9.67675781,13.8489663 C9.81836008,14.2347104 10.0014637,14.6131246 10.2260742,14.9842202 C10.4506847,15.3553158 10.7290022,15.6726954 11.0610352,15.9363686 L6.94482422,17.8846108 L6.47607422,18.1556069 C6.16357266,18.3362719 6.00732422,18.5535548 6.00732422,18.8074624 L6.00732422,20.2283608 C6.00732422,20.4822683 6.09765535,20.6995513 6.27832031,20.8802163 C6.45898528,21.0608812 6.68115103,21.1512124 6.94482422,21.1512124 L20.0698242,21.1512124 C20.3237317,21.1512124 20.5410147,21.0608812 20.7216797,20.8802163 C20.9023447,20.6995513 20.9926758,20.4822683 20.9926758,20.2283608 L20.9926758,18.8074624 C20.9926758,18.5340235 20.8388687,18.3118578 20.53125,18.1409585 L20.0698242,17.8846108 L15.9829102,15.9363686 C16.3051774,15.6824611 16.5786122,15.3772884 16.8032227,15.0208413 C17.0278332,14.6643942 17.2084954,14.2933041 17.3452148,13.90756 C17.4819343,13.5218159 17.5795896,13.1434017 17.6381836,12.7723061 C17.6967776,12.4012105 17.7260742,12.0740653 17.7260742,11.7908608 L17.7260742,9.4471108 C17.7260742,9.05648385 17.6015637,8.66586276 17.3525391,8.2752358 C17.1035144,7.88460885 16.781252,7.53304987 16.3857422,7.2205483 C15.9902324,6.90804674 15.5410181,6.65414303 15.0380859,6.45882955 C14.5351537,6.26351608 14.0249049,6.1658608 13.5073242,6.1658608 Z" id="User---simple-line-icons" fill="#CBCBCB"></path>
                    </g>
                </g>
            </g>
        </g>
    </g>
</svg>